{
  "accessors": [
    {
      "bufferView": 2,
      "componentType": 5126,
      "count": 4,
      "max": [
        2.4714889526367188,
        2.3904037475585938,
        0.0
      ],
      "min": [
        -2.4714889526367188,
        0.39040374755859375,
        0.0
      ],
      "type": "VEC3"
    },
    {
      "bufferView": 2,
      "byteOffset": 48,
      "componentType": 5126,
      "count": 4,
      "max": [
        0.0,
        0.0,
        1.0
      ],
      "min": [
        0.0,
        0.0,
        1.0
      ],
      "type": "VEC3"
    },
    {
      "bufferView": 1,
      "componentType": 5126,
      "count": 4,
      "max": [
        0.9943010210990906,
        0.978097140789032
      ],
      "min": [
        0.005694027990102768,
        0.5780925750732422
      ],
      "type": "VEC2"
    },
    {
      "bufferView": 0,
      "componentType": 5125,
      "count": 6,
      "type": "SCALAR"
    },
    {
      "bufferView": 2,
      "byteOffset": 96,
      "componentType": 5126,
      "count": 20,
      "max": [
        2.4714889526367188,
        2.3904037475585938,
        0.0
      ],
      "min": [
        -2.4714889526367188,
        0.39040374755859375,
        -0.049599260091781616
      ],
      "type": "VEC3"
    },
    {
      "bufferView": 2,
      "byteOffset": 336,
      "componentType": 5126,
      "count": 20,
      "max": [
        1.0,
        1.0,
        0.0
      ],
      "min": [
        -1.0,
        -1.0,
        -1.0
      ],
      "type": "VEC3"
    },
    {
      "bufferView": 1,
      "byteOffset": 32,
      "componentType": 5126,
      "count": 20,
      "max": [
        0.9943010210990906,
        0.978097140789032
      ],
      "min": [
        0.005694027990102768,
        0.5780925750732422
      ],
      "type": "VEC2"
    },
    {
      "bufferView": 0,
      "byteOffset": 24,
      "componentType": 5125,
      "count": 30,
      "type": "SCALAR"
    },
    {
      "bufferView": 2,
      "byteOffset": 576,
      "componentType": 5126,
      "count": 4,
      "max": [
        2.291332721710205,
        0.0450516939163208,
        0.0
      ],
      "min": [
        -2.3145370483398438,
        -2.4490489959716797,
        0.0
      ],
      "type": "VEC3"
    },
    {
      "bufferView": 2,
      "byteOffset": 624,
      "componentType": 5126,
      "count": 4,
      "max": [
        0.0,
        0.0,
        1.0
      ],
      "min": [
        0.0,
        0.0,
        1.0
      ],
      "type": "VEC3"
    },
    {
      "bufferView": 1,
      "byteOffset": 192,
      "componentType": 5126,
      "count": 4,
      "max": [
        0.9582693576812744,
        0.5090214014053345
      ],
      "min": [
        0.037084709852933884,
        0.010195454582571983
      ],
      "type": "VEC2"
    },
    {
      "bufferView": 0,
      "byteOffset": 144,
      "componentType": 5125,
      "count": 6,
      "type": "SCALAR"
    },
    {
      "bufferView": 2,
      "byteOffset": 672,
      "componentType": 5126,
      "count": 20,
      "max": [
        2.291332721710205,
        0.0450516939163208,
        0.0
      ],
      "min": [
        -2.3145370483398438,
        -2.4490489959716797,
        -0.049599260091781616
      ],
      "type": "VEC3"
    },
    {
      "bufferView": 2,
      "byteOffset": 912,
      "componentType": 5126,
      "count": 20,
      "max": [
        1.0,
        1.0,
        0.0
      ],
      "min": [
        -1.0,
        -1.0,
        -1.0
      ],
      "type": "VEC3"
    },
    {
      "bufferView": 1,
      "byteOffset": 224,
      "componentType": 5126,
      "count": 20,
      "max": [
        0.9582693576812744,
        0.5090214014053345
      ],
      "min": [
        0.037084709852933884,
        0.010195454582571983
      ],
      "type": "VEC2"
    },
    {
      "bufferView": 0,
      "byteOffset": 168,
      "componentType": 5125,
      "count": 30,
      "type": "SCALAR"
    },
    {
      "bufferView": 2,
      "byteOffset": 1152,
      "componentType": 5126,
      "count": 1100,
      "max": [
        0.28905773162841797,
        1.1546388864517212,
        1.998839259147644
      ],
      "min": [
        -1.4138027429580688,
        -1.1920928955078125e-07,
        -1.9988394975662231
      ],
      "type": "VEC3"
    },
    {
      "bufferView": 2,
      "byteOffset": 14352,
      "componentType": 5126,
      "count": 1100,
      "max": [
        0.999313473701477,
        0.9999994039535522,
        1.0
      ],
      "min": [
        -0.999313473701477,
        -0.9997769594192505,
        -1.0
      ],
      "type": "VEC3"
    },
    {
      "bufferView": 1,
      "byteOffset": 384,
      "componentType": 5126,
      "count": 1100,
      "max": [
        0.9943010807037354,
        0.9780972599983215
      ],
      "min": [
        0.0,
        0.0
      ],
      "type": "VEC2"
    },
    {
      "bufferView": 0,
      "byteOffset": 288,
      "componentType": 5125,
      "count": 2940,
      "type": "SCALAR"
    },
    {
      "bufferView": 2,
      "byteOffset": 27552,
      "componentType": 5126,
      "count": 1068,
      "max": [
        0.28905773162841797,
        1.1362276077270508,
        1.998839259147644
      ],
      "min": [
        -1.4138026237487793,
        -1.1920928955078125e-07,
        -1.9988394975662231
      ],
      "type": "VEC3"
    },
    {
      "bufferView": 2,
      "byteOffset": 40368,
      "componentType": 5126,
      "count": 1068,
      "max": [
        0.9948006272315979,
        0.9999995231628418,
        1.0
      ],
      "min": [
        -0.9948006272315979,
        -0.9997769594192505,
        -1.0
      ],
      "type": "VEC3"
    },
    {
      "bufferView": 1,
      "byteOffset": 9184,
      "componentType": 5126,
      "count": 1068,
      "max": [
        0.9913156032562256,
        0.9780972599983215
      ],
      "min": [
        0.0,
        0.0
      ],
      "type": "VEC2"
    },
    {
      "bufferView": 0,
      "byteOffset": 12048,
      "componentType": 5125,
      "count": 3168,
      "type": "SCALAR"
    }
  ],
  "asset": {
    "extras": {
      "author": "assetfactory (https://sketchfab.com/assetfactory)",
      "license": "CC-BY-4.0 (http://creativecommons.org/licenses/by/4.0/)",
      "source": "https://sketchfab.com/3d-models/sci-fi-computer-game-ready-53e7eeb0f69540d2892ad6aa5f47bd39",
      "title": "Sci - fi computer game ready"
    },
    "generator": "Sketchfab-13.68.0",
    "version": "2.0"
  },
  "bufferViews": [
    {
      "buffer": 0,
      "byteLength": 24720,
      "name": "floatBufferViews",
      "target": 34963
    },
    {
      "buffer": 0,
      "byteLength": 17728,
      "byteOffset": 24720,
      "byteStride": 8,
      "name": "floatBufferViews",
      "target": 34962
    },
    {
      "buffer": 0,
      "byteLength": 53184,
      "byteOffset": 42448,
      "byteStride": 12,
      "name": "floatBufferViews",
      "target": 34962
    }
  ],
  "buffers": [
    {
      "byteLength": 95632,
      "uri": "scene.bin"
    }
  ],
  "images": [
    {
      "uri": "textures/digital_displays_emissive.png"
    }
  ],
  "materials": [
    {
      "alphaMode": "BLEND",
      "doubleSided": true,
      "emissiveFactor": [
        1.0,
        1.0,
        1.0
      ],
      "emissiveTexture": {
        "index": 0
      },
      "name": "digital_displays",
      "pbrMetallicRoughness": {
        "baseColorFactor": [
          0.0,
          0.0,
          0.0,
          0.608001853
        ],
        "metallicFactor": 0.0
      }
    },
    {
      "alphaMode": "BLEND",
      "doubleSided": true,
      "name": "digital_display_sides",
      "pbrMetallicRoughness": {
        "baseColorFactor": [
          0.2059413676,
          0.2059413676,
          0.2059413676,
          0.2483817094
        ],
        "metallicFactor": 0.0
      }
    },
    {
      "doubleSided": true,
      "name": "metal_2",
      "pbrMetallicRoughness": {
        "baseColorFactor": [
          0.00807586,
          0.00807586,
          0.00807586,
          1.0
        ],
        "roughnessFactor": 0.9
      }
    },
    {
      "doubleSided": true,
      "name": "metal_1",
      "pbrMetallicRoughness": {
        "baseColorFactor": [
          0.6592412686,
          0.6592412686,
          0.6592412686,
          1.0
        ],
        "roughnessFactor": 0.2
      }
    }
  ],
  "meshes": [
    {
      "name": "Plane.002_digital_displays_0",
      "primitives": [
        {
          "attributes": {
            "NORMAL": 1,
            "POSITION": 0,
            "TEXCOORD_0": 2
          },
          "indices": 3,
          "material": 0,
          "mode": 4
        }
      ]
    },
    {
      "name": "Plane.002_digital_display_sides_0",
      "primitives": [
        {
          "attributes": {
            "NORMAL": 5,
            "POSITION": 4,
            "TEXCOORD_0": 6
          },
          "indices": 7,
          "material": 1,
          "mode": 4
        }
      ]
    },
    {
      "name": "Plane.001_digital_displays_0",
      "primitives": [
        {
          "attributes": {
            "NORMAL": 9,
            "POSITION": 8,
            "TEXCOORD_0": 10
          },
          "indices": 11,
          "material": 0,
          "mode": 4
        }
      ]
    },
    {
      "name": "Plane.001_digital_display_sides_0",
      "primitives": [
        {
          "attributes": {
            "NORMAL": 13,
            "POSITION": 12,
            "TEXCOORD_0": 14
          },
          "indices": 15,
          "material": 1,
          "mode": 4
        }
      ]
    },
    {
      "name": "Circle_metal_2_0",
      "primitives": [
        {
          "attributes": {
            "NORMAL": 17,
            "POSITION": 16,
            "TEXCOORD_0": 18
          },
          "indices": 19,
          "material": 2,
          "mode": 4
        }
      ]
    },
    {
      "name": "Circle_metal_1_0",
      "primitives": [
        {
          "attributes": {
            "NORMAL": 21,
            "POSITION": 20,
            "TEXCOORD_0": 22
          },
          "indices": 23,
          "material": 3,
          "mode": 4
        }
      ]
    }
  ],
  "nodes": [
    {
      "children": [
        1
      ],
      "matrix": [
        1.0,
        0.0,
        0.0,
        0.0,
        0.0,
        2.220446049250313e-16,
        -1.0,
        0.0,
        0.0,
        1.0,
        2.220446049250313e-16,
        0.0,
        0.0,
        0.0,
        0.0,
        1.0
      ],
      "name": "Sketchfab_model"
    },
    {
      "children": [
        2
      ],
      "matrix": [
        0.009999999776482582,
        0.0,
        0.0,
        0.0,
        0.0,
        0.0,
        0.009999999776482582,
        0.0,
        0.0,
        -0.009999999776482582,
        0.0,
        0.0,
        0.0,
        0.0,
        0.0,
        1.0
      ],
      "name": "e9b7f83138d74896be663b0d70f0f6fd.fbx"
    },
    {
      "children": [
        3,
        6,
        9
      ],
      "name": "RootNode"
    },
    {
      "children": [
        4,
        5
      ],
      "matrix": [
        100.0,
        -2.261582601380413e-15,
        -1.1547424807628e-16,
        0.0,
        1.1547458780879715e-16,
        10.185270739295781,
        -99.47994903480422,
        0.0,
        2.261582584033969e-15,
        99.47994903480422,
        10.185270739295781,
        0.0,
        6.410145445044993e-15,
        28.868728637695313,
        312.19281005859375,
        1.0
      ],
      "name": "Plane.002"
    },
    {
      "mesh": 0,
      "name": "Plane.002_digital_displays_0"
    },
    {
      "mesh": 1,
      "name": "Plane.002_digital_display_sides_0"
    },
    {
      "children": [
        7,
        8
      ],
      "matrix": [
        100.0,
        -2.16252752450384e-14,
        -1.716605705932834e-14,
        0.0,
        1.716605484391725e-14,
        97.3915766274902,
        -22.690951415329838,
        0.0,
        2.162527431413746e-14,
        22.690951415329838,
        97.3915766274902,
        0.0,
        8.477934473156631e-14,
        381.8122253417969,
        -82.65690612792969,
        1.0
      ],
      "name": "Plane.001"
    },
    {
      "mesh": 2,
      "name": "Plane.001_digital_displays_0"
    },
    {
      "mesh": 3,
      "name": "Plane.001_digital_display_sides_0"
    },
    {
      "children": [
        10,
        11
      ],
      "matrix": [
        9.346685115231286e-06,
        8.192436368609966e-22,
        -123.8005981445309,
        0.0,
        5.4114968952821535e-06,
        123.80059814453112,
        4.0855664932326257e-13,
        0.0,
        123.80059814453078,
        -5.411496895282169e-06,
        9.346685115231286e-06,
        0.0,
        -1.0403571195638506e-06,
        0.0,
        -94.76156616210938,
        1.0
      ],
      "name": "Circle"
    },
    {
      "mesh": 4,
      "name": "Circle_metal_2_0"
    },
    {
      "mesh": 5,
      "name": "Circle_metal_1_0"
    }
  ],
  "samplers": [
    {
      "magFilter": 9729,
      "minFilter": 9987,
      "wrapS": 10497,
      "wrapT": 10497
    }
  ],
  "scene": 0,
  "scenes": [
    {
      "name": "Sketchfab_Scene",
      "nodes": [
        0
      ]
    }
  ],
  "textures": [
    {
      "sampler": 0,
      "source": 0
    }
  ]
}
